<svg xmlns="http://www.w3.org/2000/svg" viewBox="0 0 180 60">
    <!-- Logo Container -->
    <g>
        <!-- Stylized 'B' -->
        <rect x="0" y="10" width="40" height="40" fill="#000000" rx="4" />
        
        <!-- Flame elements -->
        <path d="M30,10 C40,15 45,25 40,40 C35,50 25,55 10,52 C27,45 33,35 30,25 C28,19 20,17 10,25 C13,13 22,7 30,10 Z" fill="#E74C18" />
        <path d="M25,12 C25,12 33,25 30,35 C27,45 20,50 0,50 C12,40 17,33 10,25 C10,20 12,15 25,12 Z" fill="#C41200" />
        
        <!-- Text: Betterlink -->
        <text x="50" y="30" font-family="Montserrat, sans-serif" font-size="16" font-weight="700" fill="#000000">Betterlink</text>
        <text x="50" y="45" font-family="Montserrat, sans-serif" font-size="14" font-weight="500" fill="#C41200">Systems</text>
    </g>
</svg>